<?xml version="1.0" standalone="no"?>
<!DOCTYPE svg PUBLIC "-//W3C//DTD SVG 20010904//EN"
 "http://www.w3.org/TR/2001/REC-SVG-20010904/DTD/svg10.dtd">
<svg version="1.0" xmlns="http://www.w3.org/2000/svg"
 width="512.000000pt" height="512.000000pt" viewBox="0 0 512.000000 512.000000"
 preserveAspectRatio="xMidYMid meet">
<metadata>
Created by potrace 1.11, written by Peter Selinger 2001-2013
</metadata>
<g transform="translate(0.000000,512.000000) scale(0.100000,-0.100000)"
fill="#000000" stroke="none">
<path d="M815 5105 c-185 -41 -299 -120 -275 -190 5 -15 -5 -34 -44 -78 -44
-50 -55 -57 -78 -53 -20 4 -36 -2 -58 -20 -16 -14 -30 -31 -30 -37 0 -7 -6
-24 -14 -39 -51 -98 -64 -299 -27 -433 35 -126 84 -208 181 -305 143 -144 307
-210 502 -204 253 8 472 146 590 372 49 92 70 177 74 292 8 234 -85 426 -278
577 -32 24 -58 41 -58 37 0 -4 -8 0 -17 8 -19 16 -80 42 -153 65 -63 20 -241
25 -315 8z"/>
<path d="M2225 4403 c-96 -16 -143 -31 -224 -70 -75 -36 -108 -59 -171 -121
-103 -103 -178 -237 -196 -349 -3 -20 -7 -44 -9 -55 -7 -35 -7 -123 -1 -183
l7 -60 -128 -62 c-154 -75 -286 -168 -403 -283 -156 -154 -192 -215 -155 -264
12 -16 11 -22 -9 -50 -12 -17 -30 -47 -40 -67 -16 -30 -24 -36 -52 -36 -43 0
-61 -16 -91 -83 -59 -135 -101 -296 -118 -460 -2 -24 -6 -44 -7 -45 -2 -2 -40
-6 -85 -9 -233 -18 -405 -111 -477 -258 -71 -146 -27 -311 103 -382 46 -25 61
-28 119 -24 117 7 198 81 209 189 6 63 -13 95 -62 105 -42 8 -74 -20 -82 -71
-12 -75 -84 -101 -136 -49 -48 48 -48 134 0 195 70 89 162 128 345 145 62 6
68 5 69 -12 3 -104 29 -261 60 -363 81 -264 207 -473 407 -670 l106 -105 2
-55 c5 -123 19 -274 39 -441 20 -163 73 -262 178 -334 69 -47 127 -67 212 -72
143 -8 280 61 358 181 24 37 68 148 65 163 -1 6 14 137 18 155 1 4 2 21 3 37
l1 30 560 0 c482 0 560 -2 560 -14 0 -8 7 -68 15 -133 28 -210 112 -333 275
-398 63 -25 190 -28 256 -6 168 57 269 190 289 381 6 58 14 130 20 167 2 12 6
66 10 120 12 188 11 185 52 218 21 16 74 64 118 106 72 70 79 80 78 114 -1 21
-6 40 -11 44 -6 4 8 31 34 65 24 33 44 63 44 67 0 4 18 7 40 7 22 0 47 6 56
13 9 7 35 52 59 100 l44 86 156 1 c86 1 174 6 197 12 51 14 120 84 136 138 8
27 12 139 12 353 0 309 -1 315 -24 364 -30 65 -73 100 -143 120 -12 3 -76 7
-141 7 l-119 1 -12 46 c-27 106 -97 264 -169 381 -123 202 -314 392 -522 518
l-65 39 -1 296 -1 296 -27 36 c-42 55 -72 70 -136 69 -112 -2 -295 -77 -406
-167 -76 -63 -158 -167 -205 -262 -42 -84 -43 -85 -80 -85 l-37 0 -1 72 c-2
130 -52 276 -131 382 -106 144 -242 231 -425 273 -26 6 -184 11 -210 6z"/>
</g>
</svg>
